<?xml version="1.0" encoding="iso-8859-1"?>
<!-- Uploaded to: SVG Repo, www.svgrepo.com, Generator: SVG Repo Mixer Tools -->
<!DOCTYPE svg PUBLIC "-//W3C//DTD SVG 1.1//EN" "http://www.w3.org/Graphics/SVG/1.1/DTD/svg11.dtd">
<svg fill="#000000" height="800px" width="800px" version="1.1" id="Capa_1" xmlns="http://www.w3.org/2000/svg" xmlns:xlink="http://www.w3.org/1999/xlink" 
	 viewBox="0 0 482.139 482.139" xml:space="preserve">
<g>
	<path d="M69.826,105.072c-4.004,0-6.713,0.396-8.132,0.774v25.689c1.687,0.378,3.751,0.504,6.588,0.504
		c10.464,0,16.894-5.279,16.894-14.185C85.176,109.849,79.629,105.072,69.826,105.072z"/>
	<path d="M249.148,117.854c0-8.006-5.549-12.782-15.352-12.782c-4.004,0-6.715,0.396-8.133,0.774v25.689
		c1.67,0.378,3.75,0.504,6.588,0.504C242.685,132.039,249.148,126.76,249.148,117.854z"/>
	<path d="M357.17,0H163.521c-28.29,0-51.316,23.041-51.316,51.315v9.504h-88.43c-11.428,0-20.68,9.251-20.68,20.677v105.295
		c0,11.426,9.252,20.678,20.68,20.678h88.43v223.355c0,28.305,23.026,51.315,51.316,51.315h264.221
		c28.275,0,51.301-23.01,51.301-51.315V121.449L357.17,0z M96.682,137.98c-6.715,6.32-16.643,9.158-28.273,9.158
		c-2.586,0-4.887-0.127-6.714-0.378v31.094H42.213V92.039c6.068-1.024,14.595-1.796,26.589-1.796c12.12,0,20.788,2.317,26.589,6.966
		c5.547,4.381,9.297,11.616,9.297,20.126C104.688,125.847,101.851,133.08,96.682,137.98z M169.367,124.301V90.889h19.607v86.966
		h-19.607v-36.391h-32.402v36.391h-19.731V90.889h19.731v33.412H169.367z M427.742,450.713H163.521
		c-10.953,0-19.874-8.92-19.874-19.889V207.469h139.731c11.426,0,20.676-9.252,20.676-20.678V81.496
		c0-11.426-9.25-20.677-20.676-20.677H143.648v-9.504c0-10.938,8.92-19.858,19.874-19.858l181.889-0.189v67.234
		c0,19.637,15.934,35.586,35.588,35.586l65.863-0.189l0.74,296.925C447.601,441.793,438.695,450.713,427.742,450.713z
		 M206.185,177.855V92.039c6.051-1.024,14.594-1.796,26.572-1.796c12.133,0,20.771,2.317,26.602,6.966
		c5.549,4.381,9.268,11.616,9.268,20.126c0,8.512-2.836,15.745-7.975,20.645c-6.713,6.32-16.674,9.158-28.275,9.158
		c-2.584,0-4.916-0.127-6.713-0.378v31.094H206.185z"/>
	<path d="M296.019,286.965c0-4.713-2.412-9.111-6.383-11.647c-3.973-2.539-8.984-2.87-13.256-0.883l-76.531,35.555
		c-6.289,2.916-10.322,9.236-10.322,16.186c0,6.935,4.033,13.255,10.322,16.171l76.531,35.57c4.272,1.985,9.268,1.654,13.256-0.883
		c3.971-2.537,6.383-6.934,6.383-11.662c0-5.484-3.248-10.449-8.275-12.654l-60.582-26.557l60.582-26.541
		C292.771,297.412,296.019,292.448,296.019,286.965z"/>
	<path d="M360.385,248.288c-8.953,0-17.068,1.545-23.705,3.734c-6.037,2.001-9.359,8.464-7.471,14.531
		c1.893,6.036,8.244,9.488,14.326,7.77c3.326-0.93,6.762-1.449,9.883-1.449c10.244,0.409,14.973,5.139,14.973,12.309
		c0,6.981-5.328,13.539-11.898,21.323c-9.236,11.08-12.719,21.749-12.09,32.183l0.064,1.798c0.076,1.985,1.701,3.546,3.688,3.546
		h20.031c2.033,0,3.688-1.656,3.688-3.688c-0.205-9.236,2.854-17.227,10.449-25.643c7.803-8.621,17.43-18.864,17.43-34.436
		C399.752,263.244,387.443,248.288,360.385,248.288z"/>
	<path d="M357.529,353.662c-10.668,0-18.264,7.801-18.264,18.659c0,10.669,7.391,18.661,18.264,18.661
		c11.066,0,18.457-7.992,18.457-18.661C375.75,361.463,368.596,353.662,357.529,353.662z"/>
</g>
</svg>